<svg id="visual" viewBox="0 0 900 600" width="900" height="600" xmlns="http://www.w3.org/2000/svg" xmlns:xlink="http://www.w3.org/1999/xlink" version="1.1"><g stroke-width="1" stroke-linejoin="bevel"><path d="M432 368L360 313L289 377Z" fill="#39424b" stroke="#39424b"></path><path d="M385 206L334 290L360 313Z" fill="#9fa2a5" stroke="#9fa2a5"></path><path d="M360 313L334 290L289 377Z" fill="#39424b" stroke="#39424b"></path><path d="M289 377L386 490L432 368Z" fill="#27313a" stroke="#27313a"></path><path d="M229 304L221 427L289 377Z" fill="#8a8d92" stroke="#8a8d92"></path><path d="M289 377L300 519L386 490Z" fill="#60666d" stroke="#60666d"></path><path d="M221 427L300 519L289 377Z" fill="#8a8d92" stroke="#8a8d92"></path><path d="M334 290L229 304L289 377Z" fill="#cccccc" stroke="#cccccc"></path><path d="M385 206L275 236L334 290Z" fill="#b5b7b8" stroke="#b5b7b8"></path><path d="M334 290L275 236L229 304Z" fill="#9fa2a5" stroke="#9fa2a5"></path><path d="M502 503L531 435L432 368Z" fill="#39424b" stroke="#39424b"></path><path d="M432 368L385 206L360 313Z" fill="#39424b" stroke="#39424b"></path><path d="M539 299L385 206L432 368Z" fill="#74797f" stroke="#74797f"></path><path d="M386 490L502 503L432 368Z" fill="#39424b" stroke="#39424b"></path><path d="M368 600L502 503L386 490Z" fill="#15202b" stroke="#15202b"></path><path d="M531 435L539 299L432 368Z" fill="#8a8d92" stroke="#8a8d92"></path><path d="M221 427L204 513L300 519Z" fill="#4c535c" stroke="#4c535c"></path><path d="M91 419L204 513L221 427Z" fill="#8a8d92" stroke="#8a8d92"></path><path d="M296 600L368 600L300 519Z" fill="#39424b" stroke="#39424b"></path><path d="M300 519L368 600L386 490Z" fill="#cccccc" stroke="#cccccc"></path><path d="M204 513L296 600L300 519Z" fill="#00101c" stroke="#00101c"></path><path d="M608 499L595 403L531 435Z" fill="#15202b" stroke="#15202b"></path><path d="M531 435L595 403L539 299Z" fill="#8a8d92" stroke="#8a8d92"></path><path d="M579 275L508 193L539 299Z" fill="#00101c" stroke="#00101c"></path><path d="M539 299L508 193L385 206Z" fill="#4c535c" stroke="#4c535c"></path><path d="M595 403L579 275L539 299Z" fill="#8a8d92" stroke="#8a8d92"></path><path d="M323 112L228 171L275 236Z" fill="#60666d" stroke="#60666d"></path><path d="M275 236L228 171L229 304Z" fill="#8a8d92" stroke="#8a8d92"></path><path d="M229 304L105 333L221 427Z" fill="#60666d" stroke="#60666d"></path><path d="M323 112L275 236L385 206Z" fill="#b5b7b8" stroke="#b5b7b8"></path><path d="M99 200L105 333L229 304Z" fill="#00101c" stroke="#00101c"></path><path d="M574 600L608 499L502 503Z" fill="#4c535c" stroke="#4c535c"></path><path d="M502 503L608 499L531 435Z" fill="#b5b7b8" stroke="#b5b7b8"></path><path d="M595 403L684 274L579 275Z" fill="#74797f" stroke="#74797f"></path><path d="M105 333L91 419L221 427Z" fill="#74797f" stroke="#74797f"></path><path d="M204 513L164 600L296 600Z" fill="#39424b" stroke="#39424b"></path><path d="M368 600L530 600L502 503Z" fill="#cccccc" stroke="#cccccc"></path><path d="M417 112L323 112L385 206Z" fill="#cccccc" stroke="#cccccc"></path><path d="M508 193L417 112L385 206Z" fill="#9fa2a5" stroke="#9fa2a5"></path><path d="M61 495L164 600L204 513Z" fill="#9fa2a5" stroke="#9fa2a5"></path><path d="M530 600L574 600L502 503Z" fill="#39424b" stroke="#39424b"></path><path d="M683 497L666 426L608 499Z" fill="#cccccc" stroke="#cccccc"></path><path d="M608 499L666 426L595 403Z" fill="#27313a" stroke="#27313a"></path><path d="M0 424L61 495L91 419Z" fill="#b5b7b8" stroke="#b5b7b8"></path><path d="M91 419L61 495L204 513Z" fill="#8a8d92" stroke="#8a8d92"></path><path d="M228 171L99 200L229 304Z" fill="#27313a" stroke="#27313a"></path><path d="M105 333L0 424L91 419Z" fill="#4c535c" stroke="#4c535c"></path><path d="M120 87L99 200L228 171Z" fill="#cccccc" stroke="#cccccc"></path><path d="M272 0L208 85L323 112Z" fill="#4c535c" stroke="#4c535c"></path><path d="M323 112L208 85L228 171Z" fill="#39424b" stroke="#39424b"></path><path d="M574 600L683 497L608 499Z" fill="#cccccc" stroke="#cccccc"></path><path d="M579 275L638 169L508 193Z" fill="#00101c" stroke="#00101c"></path><path d="M508 193L514 66L417 112Z" fill="#00101c" stroke="#00101c"></path><path d="M666 426L684 274L595 403Z" fill="#b5b7b8" stroke="#b5b7b8"></path><path d="M773 336L684 274L666 426Z" fill="#b5b7b8" stroke="#b5b7b8"></path><path d="M676 214L638 169L579 275Z" fill="#15202b" stroke="#15202b"></path><path d="M623 90L514 66L508 193Z" fill="#39424b" stroke="#39424b"></path><path d="M417 112L424 0L323 112Z" fill="#74797f" stroke="#74797f"></path><path d="M684 274L676 214L579 275Z" fill="#27313a" stroke="#27313a"></path><path d="M0 267L0 424L105 333Z" fill="#60666d" stroke="#60666d"></path><path d="M0 534L62 600L61 495Z" fill="#74797f" stroke="#74797f"></path><path d="M61 495L62 600L164 600Z" fill="#00101c" stroke="#00101c"></path><path d="M0 184L0 267L99 200Z" fill="#27313a" stroke="#27313a"></path><path d="M99 200L0 267L105 333Z" fill="#8a8d92" stroke="#8a8d92"></path><path d="M235 0L120 87L208 85Z" fill="#74797f" stroke="#74797f"></path><path d="M208 85L120 87L228 171Z" fill="#4c535c" stroke="#4c535c"></path><path d="M0 424L0 534L61 495Z" fill="#39424b" stroke="#39424b"></path><path d="M514 66L424 0L417 112Z" fill="#15202b" stroke="#15202b"></path><path d="M712 111L623 90L638 169Z" fill="#8a8d92" stroke="#8a8d92"></path><path d="M638 169L623 90L508 193Z" fill="#15202b" stroke="#15202b"></path><path d="M514 66L526 0L424 0Z" fill="#8a8d92" stroke="#8a8d92"></path><path d="M424 0L272 0L323 112Z" fill="#39424b" stroke="#39424b"></path><path d="M272 0L235 0L208 85Z" fill="#15202b" stroke="#15202b"></path><path d="M120 87L0 184L99 200Z" fill="#27313a" stroke="#27313a"></path><path d="M808 435L773 336L666 426Z" fill="#4c535c" stroke="#4c535c"></path><path d="M684 274L790 227L676 214Z" fill="#b5b7b8" stroke="#b5b7b8"></path><path d="M676 214L712 111L638 169Z" fill="#27313a" stroke="#27313a"></path><path d="M584 0L526 0L514 66Z" fill="#8a8d92" stroke="#8a8d92"></path><path d="M0 534L0 600L62 600Z" fill="#60666d" stroke="#60666d"></path><path d="M574 600L735 600L683 497Z" fill="#4c535c" stroke="#4c535c"></path><path d="M683 497L808 435L666 426Z" fill="#b5b7b8" stroke="#b5b7b8"></path><path d="M704 0L584 0L623 90Z" fill="#15202b" stroke="#15202b"></path><path d="M623 90L584 0L514 66Z" fill="#27313a" stroke="#27313a"></path><path d="M790 227L712 111L676 214Z" fill="#00101c" stroke="#00101c"></path><path d="M820 479L808 435L683 497Z" fill="#cccccc" stroke="#cccccc"></path><path d="M773 336L790 227L684 274Z" fill="#39424b" stroke="#39424b"></path><path d="M900 323L790 227L773 336Z" fill="#9fa2a5" stroke="#9fa2a5"></path><path d="M735 600L820 479L683 497Z" fill="#27313a" stroke="#27313a"></path><path d="M808 435L900 388L773 336Z" fill="#74797f" stroke="#74797f"></path><path d="M235 0L85 0L120 87Z" fill="#39424b" stroke="#39424b"></path><path d="M120 87L0 69L0 184Z" fill="#cccccc" stroke="#cccccc"></path><path d="M85 0L0 69L120 87Z" fill="#b5b7b8" stroke="#b5b7b8"></path><path d="M735 600L794 600L820 479Z" fill="#27313a" stroke="#27313a"></path><path d="M817 0L704 0L712 111Z" fill="#39424b" stroke="#39424b"></path><path d="M712 111L704 0L623 90Z" fill="#b5b7b8" stroke="#b5b7b8"></path><path d="M85 0L0 0L0 69Z" fill="#cccccc" stroke="#cccccc"></path><path d="M900 467L808 435L820 479Z" fill="#b5b7b8" stroke="#b5b7b8"></path><path d="M900 467L900 388L808 435Z" fill="#15202b" stroke="#15202b"></path><path d="M790 227L824 104L712 111Z" fill="#74797f" stroke="#74797f"></path><path d="M900 185L824 104L790 227Z" fill="#74797f" stroke="#74797f"></path><path d="M900 388L900 323L773 336Z" fill="#39424b" stroke="#39424b"></path><path d="M900 600L900 467L820 479Z" fill="#00101c" stroke="#00101c"></path><path d="M900 323L900 185L790 227Z" fill="#27313a" stroke="#27313a"></path><path d="M794 600L900 600L820 479Z" fill="#9fa2a5" stroke="#9fa2a5"></path><path d="M900 0L817 0L824 104Z" fill="#4c535c" stroke="#4c535c"></path><path d="M824 104L817 0L712 111Z" fill="#15202b" stroke="#15202b"></path><path d="M900 185L900 107L824 104Z" fill="#60666d" stroke="#60666d"></path><path d="M900 107L900 0L824 104Z" fill="#00101c" stroke="#00101c"></path></g></svg>